<svg xmlns="http://www.w3.org/2000/svg" viewBox="0 0 64 80" x="0px" y="0px"><g><path d="M37,43H27a1,1,0,0,0-1,1v1a6,6,0,0,0,12,0V44A1,1,0,0,0,37,43Zm-5,6a4,4,0,0,1-4-4h8A4,4,0,0,1,32,49Z"/><path d="M52.35,11.085l1.037-.648A4.994,4.994,0,1,0,57,2H33A19.007,19.007,0,0,0,14.051,20H14a3.991,3.991,0,0,0-2.1,7.388,5.994,5.994,0,0,0,.961,11.5A12.985,12.985,0,0,0,21,62H55a7.008,7.008,0,0,0,7-7V52a1,1,0,0,0-2,0,2,2,0,0,1-4,0V49a13.036,13.036,0,0,0-4.858-10.112,5.994,5.994,0,0,0,.961-11.5A3.991,3.991,0,0,0,50,20V15.326A4.972,4.972,0,0,1,52.35,11.085ZM57,4a3,3,0,1,1-3,3A3,3,0,0,1,57,4ZM10,33a4,4,0,0,1,4-4v8A4,4,0,0,1,10,33ZM54,49v3a4,4,0,0,0,5.978,3.476A5.007,5.007,0,0,1,55,60H21a11,11,0,0,1-2.982-21.579l.238-.061c.347-.09.7-.161,1.061-.217l.332-.051A10.933,10.933,0,0,1,21,38h7.061a4.084,4.084,0,0,0,7.878,0H43a10.961,10.961,0,0,1,1.352.092l.332.052a11.319,11.319,0,0,1,1.148.238l.148.038A11.012,11.012,0,0,1,54,49ZM32.9,29.553a1.042,1.042,0,0,0-1.79,0l-2.764,5.528a4.117,4.117,0,0,0-.327.919H21a12.923,12.923,0,0,0-1.6.107c-.1.013-.2.029-.395.06a13.076,13.076,0,0,0-1.324.275l-.211.055A13.036,13.036,0,0,0,16,37.015V28H48v9.015a13.218,13.218,0,0,0-1.476-.519l-.276-.072a13.528,13.528,0,0,0-1.35-.272c-.1-.016-.2-.032-.3-.045A12.923,12.923,0,0,0,43,36H35.986a4.117,4.117,0,0,0-.327-.919Zm.883,8.456a2.09,2.09,0,0,1-3.648-2.034L32,32.236l1.87,3.739A2.078,2.078,0,0,1,33.778,38.009ZM54,33a4,4,0,0,1-4,4V29A4,4,0,0,1,54,33Zm-2-9a2,2,0,0,1-2,2H14a2,2,0,0,1,0-4H50A2,2,0,0,1,52,24Zm-4-8.674V20H16.029A17.023,17.023,0,0,1,33,4H53.026a4.845,4.845,0,0,0-.7,4.739l-1.04.651A6.959,6.959,0,0,0,48,15.326Z"/><path d="M24.428,8.7l1.144,1.639A13.2,13.2,0,0,1,27.43,9.255l-.86-1.806A15.02,15.02,0,0,0,24.428,8.7Z"/><path d="M18.624,16.714l1.916.572a13.047,13.047,0,0,1,3.371-5.572l-1.4-1.428A15.044,15.044,0,0,0,18.624,16.714Z"/><circle cx="23" cy="32" r="2"/><circle cx="41" cy="32" r="2"/></g><text x="0" y="79" fill="#000000" font-size="5px" font-weight="bold" font-family="'Helvetica Neue', Helvetica, Arial-Unicode, Arial, Sans-serif">Created by monkik</text><text x="0" y="84" fill="#000000" font-size="5px" font-weight="bold" font-family="'Helvetica Neue', Helvetica, Arial-Unicode, Arial, Sans-serif">from the Noun Project</text></svg>